<?xml version="1.0" encoding="iso-8859-1"?>
<!-- Uploaded to: SVG Repo, www.svgrepo.com, Generator: SVG Repo Mixer Tools -->
<!DOCTYPE svg PUBLIC "-//W3C//DTD SVG 1.1//EN" "http://www.w3.org/Graphics/SVG/1.1/DTD/svg11.dtd">
<svg fill="#000000" height="800px" width="800px" version="1.1" id="Capa_1" xmlns="http://www.w3.org/2000/svg" xmlns:xlink="http://www.w3.org/1999/xlink" 
	 viewBox="0 0 370 370" xml:space="preserve">
<path d="M271.107,21.2c-1.122,0-2.236,0.035-3.345,0.096v-8.881C267.763,5.559,262.205,0,255.349,0H114.651
	c-6.856,0-12.414,5.559-12.414,12.415v8.881c-1.108-0.061-2.223-0.096-3.345-0.096c-37.534,0-68.07,34.711-68.07,77.38
	c0,23.926,8.239,48.114,22.606,66.361c12.933,16.428,29.934,27.086,48.963,30.962c1.993,27.86,25.281,49.921,53.642,49.921h4.188
	v81.829h-24.166c-11.694,0-21.173,9.48-21.173,21.174c0,11.693,9.479,21.173,21.173,21.173h97.889
	c11.694,0,21.173-9.479,21.173-21.173c0-11.693-9.479-21.174-21.173-21.174h-24.166v-81.829h4.188
	c28.36,0,51.649-22.061,53.642-49.921c19.029-3.876,36.03-14.534,48.963-30.962c14.367-18.247,22.607-42.436,22.607-66.361
	C339.178,55.911,308.642,21.2,271.107,21.2z M102.237,161.47c-24.024-8.942-38.311-36.762-38.311-62.89
	c0-24.411,15.686-44.274,34.966-44.274c1.128,0,2.243,0.074,3.345,0.207V161.47z M224.504,103.898l-13.436,13.099l3.173,18.494
	c0.559,3.266-0.782,6.566-3.463,8.514c-1.517,1.103-3.313,1.662-5.117,1.662c-1.386,0-2.776-0.33-4.05-0.999L185,135.936
	l-16.609,8.732c-2.933,1.542-6.486,1.284-9.167-0.663c-2.681-1.947-4.023-5.248-3.463-8.514l3.173-18.494l-13.438-13.099
	c-2.372-2.313-3.227-5.771-2.202-8.923c1.023-3.15,3.748-5.447,7.026-5.924l18.57-2.698l8.304-16.826
	c1.467-2.972,4.493-4.853,7.806-4.853h0.001c3.313,0,6.339,1.881,7.805,4.853l8.304,16.826l18.57,2.698
	c3.278,0.476,6.003,2.772,7.026,5.924C227.73,98.127,226.876,101.585,224.504,103.898z M267.763,161.47V54.513
	c1.102-0.133,2.217-0.207,3.345-0.207c19.28,0,34.966,19.863,34.966,44.274C306.073,124.708,291.787,152.527,267.763,161.47z"/>
</svg>